<svg width="100" height="100" viewBox="0 0 100 100" fill="none" xmlns="http://www.w3.org/2000/svg">
<rect width="100" height="100" rx="25" fill="white"/>
<path d="M74.7833 76.4665H25.2166C23.0065 76.4665 20.8869 75.5886 19.3241 74.0258C17.7613 72.463 16.8833 70.3433 16.8833 68.1332V31.8665C16.8833 29.6564 17.7613 27.5368 19.3241 25.974C20.8869 24.4112 23.0065 23.5332 25.2166 23.5332H42.7833C44.7272 23.5334 46.6099 24.2133 48.1056 25.4551C49.6012 26.6969 50.6156 28.4224 50.9733 30.3332L51.1133 31.0732C51.1848 31.4551 51.3875 31.8001 51.6863 32.0484C51.9852 32.2967 52.3614 32.4328 52.75 32.4332H74.7833C76.9934 32.4332 79.113 33.3112 80.6758 34.874C82.2387 36.4368 83.1166 38.5564 83.1166 40.7665V68.1332C83.1166 70.3433 82.2387 72.463 80.6758 74.0258C79.113 75.5886 76.9934 76.4665 74.7833 76.4665ZM25.2166 26.8665C23.8906 26.8665 22.6188 27.3933 21.6811 28.331C20.7434 29.2687 20.2166 30.5405 20.2166 31.8665V68.1332C20.2166 69.4593 20.7434 70.7311 21.6811 71.6687C22.6188 72.6064 23.8906 73.1332 25.2166 73.1332H74.7833C76.1094 73.1332 77.3811 72.6064 78.3188 71.6687C79.2565 70.7311 79.7833 69.4593 79.7833 68.1332V40.7665C79.7833 39.4405 79.2565 38.1687 78.3188 37.231C77.3811 36.2933 76.1094 35.7665 74.7833 35.7665H52.75C51.5832 35.7661 50.4534 35.3576 49.5561 34.6119C48.6588 33.8662 48.0505 32.8302 47.8366 31.6832L47.6966 30.9465C47.482 29.8002 46.8735 28.7649 45.9762 28.0199C45.079 27.2748 43.9496 26.8668 42.7833 26.8665H25.2166Z" fill="black"/>
</svg>
